<?xml version="1.0" encoding="UTF-8"?>
<!DOCTYPE svg PUBLIC "-//W3C//DTD SVG 1.1//EN" "http://www.w3.org/Graphics/SVG/1.1/DTD/svg11.dtd">
<svg xmlns="http://www.w3.org/2000/svg" version="1.1" width="512px" height="512px" style="shape-rendering:geometricPrecision; text-rendering:geometricPrecision; image-rendering:optimizeQuality; fill-rule:evenodd; clip-rule:evenodd" xmlns:xlink="http://www.w3.org/1999/xlink">
<g><path style="opacity:0.963" fill="#000000" d="M 511.5,221.5 C 511.5,234.167 511.5,246.833 511.5,259.5C 499.67,335.998 460.003,393.165 392.5,431C 317.941,469.822 240.608,476.322 160.5,450.5C 152.051,456.44 143.718,462.607 135.5,469C 105.31,488.797 72.3105,497.131 36.5,494C 29.4972,488.254 27.6639,481.087 31,472.5C 55.6979,447.416 64.3645,417.75 57,383.5C 24.9024,348.634 5.73572,307.634 -0.5,260.5C -0.5,247.5 -0.5,234.5 -0.5,221.5C 9.19326,152.602 42.8599,98.7683 100.5,60C 167.932,18.2047 240.598,5.53806 318.5,22C 391.384,38.4749 447.217,78.3082 486,141.5C 499.666,166.658 508.166,193.325 511.5,221.5 Z M 245.5,45.5 C 313.689,44.1646 373.022,65.9979 423.5,111C 478.539,165.66 493.706,229.827 469,303.5C 445.414,355.56 407.248,392.727 354.5,415C 289.773,441.493 224.773,442.16 159.5,417C 153.428,415.594 148.094,416.928 143.5,421C 125.802,440.932 104.136,453.765 78.5,459.5C 92.2758,429.92 94.4425,399.586 85,368.5C 49.9758,332.598 31.4758,289.431 29.5,239C 32.5003,184.335 54.5003,139.002 95.5,103C 139.107,67.3709 189.107,48.2042 245.5,45.5 Z M 129.5,226.5 C 143.652,225.151 149.819,231.485 148,245.5C 142.135,255.246 134.301,257.08 124.5,251C 117.906,241.014 119.573,232.848 129.5,226.5 Z M 249.5,226.5 C 263.652,225.151 269.819,231.485 268,245.5C 262.135,255.246 254.301,257.08 244.5,251C 237.906,241.014 239.573,232.848 249.5,226.5 Z M 371.5,226.5 C 385.652,225.151 391.819,231.485 390,245.5C 384.135,255.246 376.301,257.08 366.5,251C 359.906,241.014 361.573,232.848 371.5,226.5 Z"/></g>
<g><path style="opacity:0.961" fill="#000000" d="M 124.5,195.5 C 152.134,192.719 170.3,204.386 179,230.5C 182.267,258.153 170.767,276.32 144.5,285C 116.847,288.267 98.6803,276.767 90,250.5C 86.8545,222.76 98.3545,204.427 124.5,195.5 Z M 129.5,226.5 C 119.573,232.848 117.906,241.014 124.5,251C 134.301,257.08 142.135,255.246 148,245.5C 149.819,231.485 143.652,225.151 129.5,226.5 Z"/></g>
<g><path style="opacity:0.961" fill="#000000" d="M 244.5,195.5 C 272.134,192.719 290.3,204.386 299,230.5C 302.267,258.153 290.767,276.32 264.5,285C 236.847,288.267 218.68,276.767 210,250.5C 206.854,222.76 218.354,204.427 244.5,195.5 Z M 249.5,226.5 C 239.573,232.848 237.906,241.014 244.5,251C 254.301,257.08 262.135,255.246 268,245.5C 269.819,231.485 263.652,225.151 249.5,226.5 Z"/></g>
<g><path style="opacity:0.961" fill="#000000" d="M 366.5,195.5 C 394.134,192.719 412.3,204.386 421,230.5C 424.267,258.153 412.767,276.32 386.5,285C 358.847,288.267 340.68,276.767 332,250.5C 328.854,222.76 340.354,204.427 366.5,195.5 Z M 371.5,226.5 C 361.573,232.848 359.906,241.014 366.5,251C 376.301,257.08 384.135,255.246 390,245.5C 391.819,231.485 385.652,225.151 371.5,226.5 Z"/></g>
</svg>
