<?xml version="1.0" encoding="UTF-8"?><!DOCTYPE svg PUBLIC "-//W3C//DTD SVG 1.1//EN"
    "http://www.w3.org/Graphics/SVG/1.1/DTD/svg11.dtd">
<svg xmlns="http://www.w3.org/2000/svg" version="1.1" width="512px" height="512px"
    style="shape-rendering:geometricPrecision; text-rendering:geometricPrecision; image-rendering:optimizeQuality; fill-rule:evenodd; clip-rule:evenodd"
    xmlns:xlink="http://www.w3.org/1999/xlink">
    <g>
        <path style="opacity:0.992" fill="#000000"
            d="M 511.5,221.5 C 511.5,234.167 511.5,246.833 511.5,259.5C 502.307,324.72 470.974,376.553 417.5,415C 348.226,461.587 272.559,476.254 190.5,459C 180.411,456.478 170.411,453.644 160.5,450.5C 152.051,456.44 143.718,462.607 135.5,469C 105.31,488.797 72.3105,497.131 36.5,494C 29.4972,488.254 27.6639,481.087 31,472.5C 55.6979,447.416 64.3645,417.75 57,383.5C 24.9024,348.634 5.73572,307.634 -0.5,260.5C -0.5,247.5 -0.5,234.5 -0.5,221.5C 7.29903,162.07 34.299,113.237 80.5,75C 148.227,23.5114 224.227,5.17808 308.5,20C 385.55,34.9003 444.717,75.4003 486,141.5C 499.664,166.654 508.164,193.321 511.5,221.5 Z M 127.5,196.5 C 154.542,194.067 172.042,205.733 180,231.5C 182.92,258.564 171.42,276.064 145.5,284C 118.436,286.92 100.936,275.42 93,249.5C 90.2868,222.411 101.787,204.744 127.5,196.5 Z M 247.5,196.5 C 274.542,194.067 292.042,205.733 300,231.5C 302.92,258.564 291.42,276.064 265.5,284C 238.436,286.92 220.936,275.42 213,249.5C 210.287,222.411 221.787,204.744 247.5,196.5 Z M 367.5,196.5 C 394.542,194.067 412.042,205.733 420,231.5C 422.92,258.564 411.42,276.064 385.5,284C 358.436,286.92 340.936,275.42 333,249.5C 330.287,222.411 341.787,204.744 367.5,196.5 Z" />
    </g>
</svg>
