<svg width="25" height="24" viewBox="0 0 25 24" fill="none" xmlns="http://www.w3.org/2000/svg">
<g id="Frame" clip-path="url(#clip0_1_124)">
<path id="Vector" d="M17 3C20.038 3 22.5 5.5 22.5 9C22.5 16 15 20 12.5 21.5C10 20 2.5 16 2.5 9C2.5 5.5 5 3 8 3C9.86 3 11.5 4 12.5 5C13.5 4 15.14 3 17 3ZM13.434 18.604C14.315 18.048 15.11 17.495 15.854 16.903C18.835 14.533 20.5 11.943 20.5 9C20.5 6.64 18.963 5 17 5C15.924 5 14.76 5.57 13.914 6.414L12.5 7.828L11.086 6.414C10.24 5.57 9.076 5 8 5C6.06 5 4.5 6.656 4.5 9C4.5 11.944 6.166 14.533 9.145 16.903C9.89 17.495 10.685 18.048 11.566 18.603C11.865 18.792 12.161 18.973 12.5 19.175C12.839 18.973 13.135 18.792 13.434 18.604Z" fill="#718096"/>
</g>
<defs>
<clipPath id="clip0_1_124">
<rect width="24" height="24" fill="white" transform="translate(0.5)"/>
</clipPath>
</defs>
</svg>
