<svg width="24" height="25" viewBox="0 0 24 25" fill="none" xmlns="http://www.w3.org/2000/svg">
    <path
        d="M13.0621 0.939185C12.7804 0.657975 12.3984 0.5 12 0.5C11.6016 0.5 11.2196 0.657975 10.9379 0.939185L0.421715 11.4393C0.148058 11.7222 -0.00336609 12.1011 5.67912e-05 12.4944C0.00347968 12.8877 0.161476 13.264 0.440016 13.5421C0.718556 13.8202 1.09535 13.978 1.48925 13.9814C1.88315 13.9848 2.26264 13.8336 2.54598 13.5604L2.98615 13.1208V23C2.98615 23.3978 3.14443 23.7793 3.42617 24.0607C3.70791 24.342 4.09002 24.5 4.48846 24.5H7.49308C7.89151 24.5 8.27363 24.342 8.55537 24.0607C8.83711 23.7793 8.99538 23.3978 8.99538 23V19.9999C8.99538 19.6021 9.15366 19.2206 9.4354 18.9393C9.71714 18.658 10.0993 18.4999 10.4977 18.4999H13.5023C13.9007 18.4999 14.2829 18.658 14.5646 18.9393C14.8463 19.2206 15.0046 19.6021 15.0046 19.9999V23C15.0046 23.3978 15.1629 23.7793 15.4446 24.0607C15.7264 24.342 16.1085 24.5 16.5069 24.5H19.5115C19.91 24.5 20.2921 24.342 20.5738 24.0607C20.8556 23.7793 21.0138 23.3978 21.0138 23V13.1208L21.454 13.5604C21.7374 13.8336 22.1168 13.9848 22.5107 13.9814C22.9046 13.978 23.2814 13.8202 23.56 13.5421C23.8385 13.264 23.9965 12.8877 23.9999 12.4944C24.0034 12.1011 23.8519 11.7222 23.5783 11.4393L13.0621 0.939185Z"
        fill="#3898FC" />
</svg>
