<svg width="25" height="24" viewBox="0 0 25 24" fill="none" xmlns="http://www.w3.org/2000/svg">
<g id="Frame" clip-path="url(#clip0_1_133)">
<path id="Vector" d="M15.1 8.00003H21.5C22.0304 8.00003 22.5391 8.21074 22.9142 8.58581C23.2893 8.96089 23.5 9.46959 23.5 10V12.104C23.5003 12.3654 23.4493 12.6243 23.35 12.866L20.255 20.381C20.1795 20.5642 20.0513 20.7209 19.8866 20.8311C19.7219 20.9413 19.5282 21.0001 19.33 21H2.5C2.23478 21 1.98043 20.8947 1.79289 20.7071C1.60536 20.5196 1.5 20.2652 1.5 20V10C1.5 9.73481 1.60536 9.48046 1.79289 9.29292C1.98043 9.10538 2.23478 9.00003 2.5 9.00003H5.982C6.1421 9.00007 6.29986 8.96167 6.44203 8.88806C6.5842 8.81445 6.70662 8.70778 6.799 8.57703L12.252 0.850026C12.3209 0.752339 12.4226 0.682586 12.5385 0.653416C12.6545 0.624246 12.777 0.637589 12.884 0.691026L14.698 1.59803C15.2085 1.85319 15.6163 2.27534 15.8537 2.79434C16.0911 3.31334 16.1438 3.89795 16.003 4.45103L15.1 8.00003ZM7.5 10.588V19H18.66L21.5 12.104V10H15.1C14.7954 9.99998 14.4948 9.93036 14.2212 9.79648C13.9476 9.6626 13.7082 9.468 13.5213 9.22751C13.3343 8.98703 13.2048 8.70702 13.1425 8.40885C13.0803 8.11068 13.0869 7.80223 13.162 7.50703L14.065 3.95903C14.0933 3.84835 14.0828 3.73134 14.0353 3.62745C13.9878 3.52357 13.9062 3.43907 13.804 3.38803L13.143 3.05803L8.433 9.73003C8.183 10.084 7.863 10.374 7.5 10.588ZM5.5 11H3.5V19H5.5V11Z" fill="#718096"/>
</g>
<defs>
<clipPath id="clip0_1_133">
<rect width="24" height="24" fill="white" transform="translate(0.5)"/>
</clipPath>
</defs>
</svg>
