<svg width="25" height="24" viewBox="0 0 25 24" fill="none" xmlns="http://www.w3.org/2000/svg">
<g id="Frame" clip-path="url(#clip0_1_147)">
<path id="Vector" d="M5.5 16V22H3.5V3H12.882C13.0677 3.0001 13.2496 3.05188 13.4075 3.14955C13.5654 3.24722 13.693 3.38692 13.776 3.553L14.5 5H20.5C20.7652 5 21.0196 5.10536 21.2071 5.29289C21.3946 5.48043 21.5 5.73478 21.5 6V17C21.5 17.2652 21.3946 17.5196 21.2071 17.7071C21.0196 17.8946 20.7652 18 20.5 18H14.118C13.9323 17.9999 13.7504 17.9481 13.5925 17.8504C13.4346 17.7528 13.307 17.6131 13.224 17.447L12.5 16H5.5ZM5.5 5V14H13.736L14.736 16H19.5V7H13.264L12.264 5H5.5Z" fill="#718096"/>
</g>
<defs>
<clipPath id="clip0_1_147">
<rect width="24" height="24" fill="white" transform="translate(0.5)"/>
</clipPath>
</defs>
</svg>
