<svg width="246" height="213" viewBox="0 0 246 213" fill="none" xmlns="http://www.w3.org/2000/svg">
<g id="Robot">
<g id="Group">
<g id="Group_2">
<path id="Vector" d="M122.235 95.927H92.6904V98.3542H122.235V95.927Z" fill="#334155"/>
<path id="Vector_2" d="M122.235 99.0881H92.6904V101.515H122.235V99.0881Z" fill="#334155"/>
<path id="Vector_3" d="M122.235 102.241H92.6904V104.668H122.235V102.241Z" fill="#334155"/>
<path id="Vector_4" d="M122.235 105.402H92.6904V107.83H122.235V105.402Z" fill="#334155"/>
<path id="Vector_5" d="M122.235 108.563H92.6904V110.991H122.235V108.563Z" fill="#334155"/>
</g>
<g id="Group_3">
<path id="Vector_6" d="M135.032 171.612H78.8545V174.04H135.032V171.612Z" fill="#334155"/>
<path id="Vector_7" d="M135.032 174.773H78.8545V177.201H135.032V174.773Z" fill="#334155"/>
<path id="Vector_8" d="M135.032 177.935H78.8545V180.362H135.032V177.935Z" fill="#334155"/>
<path id="Vector_9" d="M135.032 181.096H78.8545V183.523H135.032V181.096Z" fill="#334155"/>
<path id="Vector_10" d="M135.032 184.257H78.8545V186.684H135.032V184.257Z" fill="#334155"/>
</g>
<g id="Group_4">
<g id="Group_5">
<path id="Vector_11" d="M54.2023 75.8673C54.2273 75.542 41.9053 71.4049 41.9053 71.4049L42.6291 28.958L58.9697 25.4465L54.194 75.8673H54.2023Z" fill="#FDBE68"/>
<path id="Vector_12" opacity="0.2" d="M54.2023 75.8673C54.2273 75.542 41.9053 71.4049 41.9053 71.4049L42.6291 28.958L58.9697 25.4465L54.194 75.8673H54.2023Z" fill="#334155"/>
</g>
<g id="Group_6">
<path id="Vector_13" d="M167.072 92.524C167.155 92.207 180.151 92.574 180.151 92.574L194.038 52.471L179.902 43.5295L167.072 92.524Z" fill="#FDBE68"/>
<path id="Vector_14" opacity="0.2" d="M167.072 92.524C167.155 92.207 180.151 92.574 180.151 92.574L194.038 52.471L179.902 43.5295L167.072 92.524Z" fill="#334155"/>
</g>
<path id="Vector_15" d="M51.8311 91.4981C51.8311 91.4981 56.3988 22.8525 60.4091 0.273682C60.4091 0.273682 143.127 6.54604 187.781 23.6532C187.781 23.6532 164.759 103.834 163.57 107.813C163.57 107.813 105.321 96.3108 51.8394 91.4981H51.8311Z" fill="#FDBE68"/>
<g id="Group_7">
<path id="Vector_16" opacity="0.1" d="M125.663 9.44027C124.315 17.7061 122.959 25.9719 121.553 34.2211L117.293 58.9769L117.06 58.6265L144.774 65.2242L158.619 68.5856L172.447 72.0137L158.544 68.8942L144.658 65.708L116.919 59.2104L116.636 59.1437L116.686 58.8601L121.104 34.1293C122.585 25.8885 124.115 17.656 125.663 9.42358V9.44027Z" fill="#334155"/>
<path id="Vector_17" opacity="0.1" d="M122.626 14.1446C122.643 14.9036 122.035 15.6793 121.17 15.7544C120.754 15.7961 120.297 15.6626 119.955 15.3624C119.614 15.0621 119.406 14.6034 119.406 14.1446C119.406 13.6775 119.614 13.2188 119.955 12.9268C120.297 12.6266 120.754 12.4931 121.17 12.5348C122.035 12.6099 122.634 13.3939 122.626 14.1446ZM122.626 14.1446C122.626 13.7609 122.451 13.3856 122.169 13.1437C121.886 12.9018 121.511 12.8017 121.17 12.8434C120.471 12.9268 120.022 13.5524 120.03 14.1446C120.022 14.7368 120.471 15.3624 121.17 15.4458C121.511 15.4875 121.886 15.3874 122.169 15.1455C122.451 14.9036 122.618 14.5283 122.626 14.1446Z" fill="#334155"/>
<path id="Vector_18" opacity="0.1" d="M121.17 24.3621C121.187 25.1212 120.579 25.8969 119.714 25.9719C119.298 26.0136 118.84 25.8802 118.499 25.5799C118.158 25.2796 117.95 24.8209 117.95 24.3621C117.95 23.895 118.158 23.4363 118.499 23.1444C118.84 22.8441 119.298 22.7106 119.714 22.7523C120.579 22.8274 121.178 23.6115 121.17 24.3621ZM121.17 24.3621C121.17 23.9785 120.995 23.6031 120.712 23.3612C120.43 23.1193 120.055 23.0193 119.714 23.061C119.015 23.1444 118.566 23.7699 118.574 24.3621C118.566 24.9543 119.015 25.5799 119.714 25.6633C120.055 25.705 120.43 25.6049 120.712 25.363C120.995 25.1212 121.162 24.7458 121.17 24.3621Z" fill="#334155"/>
<path id="Vector_19" opacity="0.1" d="M119.382 35.1553C119.399 35.9144 118.791 36.6901 117.926 36.7651C117.51 36.8068 117.052 36.6734 116.711 36.3731C116.37 36.0728 116.162 35.6141 116.162 35.1553C116.162 34.6966 116.37 34.2295 116.711 33.9376C117.052 33.6373 117.51 33.5038 117.926 33.5455C118.791 33.6206 119.39 34.4047 119.382 35.1553ZM119.382 35.1553C119.382 34.7717 119.207 34.3963 118.924 34.1544C118.641 33.9126 118.267 33.8125 117.926 33.8542C117.227 33.9376 116.778 34.5631 116.786 35.1553C116.778 35.7476 117.227 36.3731 117.926 36.4565C118.267 36.4982 118.641 36.3981 118.924 36.1563C119.207 35.9144 119.374 35.539 119.382 35.1553Z" fill="#334155"/>
<path id="Vector_20" opacity="0.1" d="M117.593 45.9483C117.61 46.7073 117.002 47.483 116.137 47.5581C115.721 47.5998 115.263 47.4664 114.922 47.1661C114.581 46.8658 114.373 46.4071 114.373 45.9483C114.373 45.4812 114.581 45.0225 114.922 44.7305C115.263 44.4303 115.721 44.2968 116.137 44.3385C117.002 44.4136 117.601 45.1976 117.593 45.9483ZM117.593 45.9483C117.593 45.5646 117.418 45.1893 117.135 44.9474C116.852 44.7055 116.478 44.6054 116.137 44.6471C115.438 44.7305 114.989 45.3561 114.997 45.9483C114.989 46.5405 115.438 47.1661 116.137 47.2495C116.478 47.2912 116.852 47.1911 117.135 46.9492C117.418 46.7073 117.585 46.332 117.593 45.9483Z" fill="#334155"/>
<path id="Vector_21" opacity="0.1" d="M123.692 63.1556C123.708 63.9146 123.101 64.6903 122.236 64.7654C121.82 64.8071 121.362 64.6736 121.021 64.3734C120.68 64.0731 120.472 63.6143 120.472 63.1556C120.472 62.6885 120.68 62.2297 121.021 61.9378C121.362 61.6375 121.82 61.5041 122.236 61.5458C123.101 61.6209 123.7 62.4049 123.692 63.1556ZM123.692 63.1556C123.692 62.7719 123.517 62.3966 123.234 62.1547C122.951 61.9128 122.577 61.8127 122.236 61.8544C121.537 61.9378 121.087 62.5634 121.096 63.1556C121.087 63.7478 121.537 64.3733 122.236 64.4568C122.577 64.4985 122.951 64.3984 123.234 64.1565C123.517 63.9146 123.683 63.5393 123.692 63.1556Z" fill="#334155"/>
<path id="Vector_22" opacity="0.1" d="M133.85 65.6412C133.866 66.4002 133.259 67.1759 132.394 67.251C131.978 67.2927 131.52 67.1592 131.179 66.859C130.838 66.5587 130.63 66.0999 130.63 65.6412C130.63 65.1741 130.838 64.7153 131.179 64.4234C131.52 64.1231 131.978 63.9897 132.394 64.0314C133.259 64.1065 133.858 64.8905 133.85 65.6412ZM133.85 65.6412C133.85 65.2575 133.675 64.8822 133.392 64.6403C133.109 64.3984 132.735 64.2983 132.394 64.34C131.695 64.4234 131.246 65.049 131.254 65.6412C131.246 66.2334 131.695 66.859 132.394 66.9424C132.735 66.9841 133.109 66.884 133.392 66.6421C133.675 66.4002 133.841 66.0249 133.85 65.6412Z" fill="#334155"/>
<path id="Vector_23" opacity="0.1" d="M144.009 68.1268C144.026 68.8858 143.418 69.6615 142.553 69.7366C142.137 69.7783 141.679 69.6448 141.338 69.3445C140.997 69.0443 140.789 68.5855 140.789 68.1268C140.789 67.6597 140.997 67.2009 141.338 66.909C141.679 66.6087 142.137 66.4753 142.553 66.517C143.418 66.5921 144.017 67.3761 144.009 68.1268ZM144.009 68.1268C144.009 67.7431 143.834 67.3678 143.551 67.1259C143.268 66.884 142.894 66.7839 142.553 66.8256C141.854 66.909 141.405 67.5346 141.413 68.1268C141.405 68.719 141.854 69.3446 142.553 69.428C142.894 69.4697 143.268 69.3696 143.551 69.1277C143.834 68.8858 144.001 68.5105 144.009 68.1268Z" fill="#334155"/>
<path id="Vector_24" opacity="0.1" d="M154.176 70.6124C154.193 71.3714 153.585 72.1471 152.72 72.2222C152.304 72.2639 151.846 72.1304 151.505 71.8301C151.164 71.5299 150.956 71.0711 150.956 70.6124C150.956 70.1453 151.164 69.6865 151.505 69.3946C151.846 69.0943 152.304 68.9609 152.72 69.0026C153.585 69.0776 154.184 69.8617 154.176 70.6124ZM154.176 70.6124C154.176 70.2287 154.001 69.8533 153.718 69.6115C153.435 69.3696 153.061 69.2695 152.72 69.3112C152.021 69.3946 151.572 70.0202 151.58 70.6124C151.572 71.2046 152.021 71.8301 152.72 71.9135C153.061 71.9552 153.435 71.8552 153.718 71.6133C154.001 71.3714 154.168 70.996 154.176 70.6124Z" fill="#334155"/>
<path id="Vector_25" opacity="0.1" d="M164.327 73.2064C164.285 73.9654 163.619 74.6911 162.754 74.6994C162.33 74.6994 161.889 74.5409 161.573 74.2156C161.256 73.8903 161.09 73.4232 161.123 72.9562C161.165 72.4974 161.398 72.0554 161.764 71.7801C162.13 71.5049 162.596 71.4131 163.012 71.4798C163.869 71.6216 164.41 72.4474 164.335 73.1981L164.327 73.2064ZM164.327 73.2064C164.352 72.8227 164.21 72.439 163.952 72.1721C163.686 71.9135 163.32 71.7801 162.979 71.7968C162.28 71.8218 161.781 72.414 161.739 73.0062C161.681 73.5901 162.088 74.2573 162.779 74.3908C163.112 74.4575 163.495 74.3908 163.794 74.1656C164.094 73.9487 164.293 73.5817 164.327 73.2064Z" fill="#334155"/>
<path id="Vector_26" opacity="0.1" d="M115.804 56.7415C115.82 57.5005 115.213 58.2762 114.348 58.3513C113.932 58.393 113.474 58.2596 113.133 57.9593C112.792 57.659 112.584 57.2003 112.584 56.7415C112.584 56.2744 112.792 55.8157 113.133 55.5238C113.474 55.2235 113.932 55.09 114.348 55.1317C115.213 55.2068 115.812 55.9908 115.804 56.7415ZM115.804 56.7415C115.804 56.3578 115.629 55.9825 115.346 55.7406C115.063 55.4987 114.689 55.3986 114.348 55.4403C113.649 55.5237 113.2 56.1493 113.208 56.7415C113.2 57.3337 113.649 57.9593 114.348 58.0427C114.689 58.0844 115.063 57.9843 115.346 57.7424C115.629 57.5005 115.796 57.1252 115.804 56.7415Z" fill="#334155"/>
</g>
<g id="Group_8">
<g id="Group_9">
<path id="Vector_27" opacity="0.2" d="M98.6931 74.6193C108.339 65.9245 109.128 51.0367 100.455 41.3666C91.7816 31.6965 76.931 30.9058 67.285 39.6006C57.639 48.2955 56.8503 63.1832 65.5234 72.8533C74.1965 82.5235 89.0471 83.3142 98.6931 74.6193Z" fill="#334155"/>
<path id="Vector_28" d="M100.607 63.7814C104.289 54.0273 99.3869 43.1275 89.6572 39.436C79.9276 35.7444 69.055 40.659 65.3726 50.413C61.6902 60.167 66.5925 71.0668 76.3222 74.7584C86.0519 78.45 96.9245 73.5354 100.607 63.7814Z" fill="#475569"/>
<g id="Group_10">
<path id="Vector_29" d="M81.8631 50.1774L77.4609 49.4626L76.7479 53.8759L81.1501 54.5906L81.8631 50.1774Z" fill="#FDBE68"/>
<path id="Vector_30" d="M78.1698 45.0471L73.7676 44.3323L73.0546 48.7455L77.4568 49.4603L78.1698 45.0471Z" fill="#FDBE68"/>
<path id="Vector_31" d="M95.7821 47.9084L91.3799 47.1936L90.6669 51.6068L95.0691 52.3216L95.7821 47.9084Z" fill="#FDBE68"/>
<path id="Vector_32" d="M75.3309 62.5995L70.9287 61.8848L70.2157 66.298L74.6179 67.0128L75.3309 62.5995Z" fill="#FDBE68"/>
<path id="Vector_33" d="M92.9442 65.4611L88.542 64.7463L87.829 69.1595L92.2312 69.8743L92.9442 65.4611Z" fill="#FDBE68"/>
<path id="Vector_34" d="M80.4481 58.8967L76.0459 58.1819L75.3329 62.5951L79.7351 63.3099L80.4481 58.8967Z" fill="#FDBE68"/>
<path id="Vector_35" d="M85.5565 55.2582L81.1543 54.5435L80.4413 58.9567L84.8435 59.6715L85.5565 55.2582Z" fill="#FDBE68"/>
<path id="Vector_36" d="M90.6668 51.6032L86.2646 50.8884L85.5516 55.3016L89.9538 56.0164L90.6668 51.6032Z" fill="#FDBE68"/>
<path id="Vector_37" d="M89.2586 60.3322L84.8564 59.6174L84.1434 64.0306L88.5456 64.7454L89.2586 60.3322Z" fill="#FDBE68"/>
</g>
</g>
<g id="Group_11">
<g id="Group_12">
<path id="Vector_38" d="M164.186 81.8895C172.407 71.8306 170.938 56.9948 160.904 48.7528C150.87 40.5109 136.071 41.9839 127.85 52.0428C119.629 62.1017 121.098 76.9375 131.132 85.1794C141.166 93.4214 155.964 91.9484 164.186 81.8895Z" fill="#FDBE68"/>
<path id="Vector_39" opacity="0.2" d="M164.186 81.8895C172.407 71.8306 170.938 56.9948 160.904 48.7528C150.87 40.5109 136.071 41.9839 127.85 52.0428C119.629 62.1017 121.098 76.9375 131.132 85.1794C141.166 93.4214 155.964 91.9484 164.186 81.8895Z" fill="#334155"/>
<path id="Vector_40" opacity="0.2" d="M168.878 72.4225C168.77 72.8896 168.645 73.3317 168.512 73.7821L122.727 63.9899C122.835 63.1725 122.984 62.3551 123.176 61.521C126.171 48.8679 138.834 41.0524 151.464 44.0552C164.086 47.0579 171.882 59.7527 168.886 72.4142L168.878 72.4225Z" fill="#334155"/>
</g>
<path id="Vector_41" d="M153.293 84.3837C162.892 80.3624 167.421 69.3016 163.41 59.6789C159.399 50.0561 148.366 45.5152 138.767 49.5366C129.168 53.5579 124.639 64.6187 128.65 74.2414C132.661 83.8642 143.694 88.405 153.293 84.3837Z" fill="#475569"/>
<path id="Vector_42" d="M150.758 56.6727L146.419 55.6389L141.284 77.2974L145.623 78.3312L150.758 56.6727Z" fill="#FDBE68"/>
<g id="Group_13">
<path id="Vector_43" d="M170.242 71.9806L122.152 60.5202C125.306 47.2081 138.634 38.984 151.913 42.1452C165.192 45.3064 173.404 58.6602 170.242 71.9722V71.9806Z" fill="#FDBE68"/>
<path id="Vector_44" opacity="0.2" d="M170.242 71.9806L122.152 60.5202C125.306 47.2081 138.634 38.984 151.913 42.1452C165.192 45.3064 173.404 58.6602 170.242 71.9722V71.9806Z" fill="#334155"/>
</g>
</g>
<path id="Vector_45" opacity="0.1" d="M105.154 80.972C105.279 79.087 105.97 77.1769 107.326 75.6672C108 74.9082 108.89 74.3076 109.88 73.949C110.87 73.582 111.943 73.5153 112.959 73.607C113.99 73.7321 115.047 74.0908 115.912 74.7497C116.761 75.417 117.401 76.2844 117.784 77.227C118.566 79.0953 118.658 81.0888 118.275 82.9405C117.959 81.0888 117.485 79.2955 116.619 77.8192C115.762 76.3345 114.398 75.4086 112.784 75.2668C111.128 75.0583 109.522 75.5087 108.224 76.6014C106.926 77.7024 105.936 79.2705 105.163 80.972H105.154Z" fill="#334155"/>
</g>
<g id="Group_14">
<path id="Vector_46" d="M58.2627 32.945C58.4541 30.426 58.7369 27.9238 58.9782 25.4132C59.2445 22.9109 59.519 20.4003 59.8269 17.9063C60.1181 15.4041 60.4426 12.9102 60.7587 10.4079C61.0749 7.90562 61.4327 5.42002 61.7655 2.91775L61.857 2.25049L62.5309 2.29218C67.9473 2.63416 73.3553 3.07623 78.7551 3.62673C81.4591 3.90198 84.1548 4.21894 86.8422 4.56926C89.5296 4.95294 92.2253 5.31159 94.896 5.80371L78.6552 4.79445L62.4311 3.7435L63.1965 3.11794C62.8304 5.61186 62.4893 8.1058 62.0983 10.5914C61.7155 13.077 61.3328 15.5709 60.9251 18.0565C60.5258 20.5421 60.1014 23.0277 59.6605 25.5049C59.1946 27.9821 58.7702 30.4677 58.2627 32.9366V32.945Z" fill="white"/>
<path id="Vector_47" d="M62.1734 51.979C62.7225 48.9513 64.087 46.0737 65.934 43.5631C66.3916 42.9291 66.9158 42.3453 67.415 41.7447C67.9558 41.1859 68.5216 40.6354 69.079 40.0849C69.6864 39.5928 70.3021 39.1007 70.9261 38.6252C71.5917 38.1999 72.2407 37.7661 72.9146 37.3574C73.6218 37.0154 74.329 36.6651 75.0445 36.3398L77.2743 35.5641L79.5873 35.0887C80.3611 34.9719 81.1515 34.9552 81.9252 34.8885C85.0536 34.8051 88.1403 35.4807 90.9692 36.6234C87.9573 36.0562 84.9537 35.7476 82.0001 36.0312C79.0465 36.3065 76.1844 37.1906 73.6218 38.6419C71.0342 40.0515 68.7545 42.0033 66.816 44.272C64.894 46.5491 63.2966 49.1264 62.165 51.979H62.1734Z" fill="white"/>
<path id="Vector_48" d="M126.97 58.3347C127.927 55.4154 129.682 52.7463 131.854 50.5193C132.394 49.9605 132.993 49.4517 133.568 48.9262C134.183 48.4424 134.816 47.9837 135.448 47.5166C136.122 47.1079 136.796 46.7075 137.478 46.3238C138.194 45.9985 138.901 45.6566 139.625 45.3479C140.373 45.1061 141.122 44.8558 141.879 44.6306L144.192 44.1719L146.547 44.0217C147.329 44.0217 148.111 44.1051 148.893 44.1552C152.005 44.5055 154.967 45.5982 157.613 47.1245C154.709 46.1487 151.78 45.423 148.81 45.2895C145.848 45.1561 142.886 45.6315 140.149 46.7158C137.395 47.7585 134.857 49.3766 132.636 51.345C130.414 53.3302 128.484 55.6656 126.97 58.3347Z" fill="white"/>
</g>
</g>
<g id="Group_15">
<g id="Group_16">
<g id="Group_17">
<path id="Vector_49" d="M54.4594 133.795C48.444 133.795 35.2733 132.435 26.7951 121.517C15.9541 107.538 19.8728 80.7216 20.0392 79.5789L24.7484 80.2962C24.7068 80.5547 20.9711 106.228 30.5558 118.581C39.9242 130.659 56.9221 128.924 57.0969 128.907L57.6294 133.653C57.4463 133.678 56.2815 133.795 54.4594 133.795Z" fill="#FDBE68"/>
<path id="Vector_50" opacity="0.4" d="M54.4594 133.795C48.444 133.795 35.2733 132.435 26.7951 121.517C15.9541 107.538 19.8728 80.7216 20.0392 79.5789L24.7484 80.2962C24.7068 80.5547 20.9711 106.228 30.5558 118.581C39.9242 130.659 56.9221 128.924 57.0969 128.907L57.6294 133.653C57.4463 133.678 56.2815 133.795 54.4594 133.795Z" fill="white"/>
</g>
<path id="Vector_51" d="M26.1382 83.5492C25.2812 83.5492 24.3993 83.4741 23.5091 83.3323C15.5634 82.0395 12.0523 77.2768 10.4965 73.5067C8.94061 69.7283 8.58285 65.1575 9.4315 59.9194L19.5071 61.5542C18.9829 64.7989 19.1327 67.6514 19.9398 69.6032C20.5138 70.9878 21.6204 72.656 25.1481 73.2315C26.7622 73.4901 28.5011 73.3566 30.3315 70.5958C31.7376 68.4688 32.5863 65.5662 32.8858 63.7312L42.9614 65.366C42.7284 66.809 41.7384 71.8636 38.843 76.2509C35.6897 81.0219 31.2467 83.5492 26.1549 83.5492H26.1382Z" fill="#FDBE68"/>
<g id="Group_18">
<path id="Vector_52" d="M64.4107 147.457C64.3941 147.24 55.8743 145.872 55.8743 145.872L51.7393 118.005L62.0562 113.918L64.4107 147.449V147.457Z" fill="#FDBE68"/>
<path id="Vector_53" opacity="0.2" d="M64.4107 147.457C64.3941 147.24 55.8743 145.872 55.8743 145.872L51.7393 118.005L62.0562 113.918L64.4107 147.449V147.457Z" fill="#334155"/>
</g>
</g>
<g id="Group_19">
<path id="Vector_54" d="M148.602 147.515C148.627 147.299 157.171 146.123 157.171 146.123L161.922 118.356L151.697 114.043L148.602 147.515Z" fill="#FDBE68"/>
<path id="Vector_55" opacity="0.2" d="M148.602 147.515C148.627 147.299 157.171 146.123 157.171 146.123L161.922 118.356L151.697 114.043L148.602 147.515Z" fill="#334155"/>
</g>
<path id="Vector_56" d="M60.8663 107.696C60.8663 107.696 129.748 104.743 153.011 108.63C153.011 108.63 146.18 175.449 145.806 176.742C145.806 176.742 77.2901 176.559 66.5822 176.742C66.5822 176.742 60.7748 132.31 60.8663 107.696Z" fill="#FDBE68"/>
<g id="Group_20">
<path id="Vector_57" opacity="0.2" d="M81.792 126.004C81.792 126.004 119.39 124.52 132.095 126.48C132.095 126.48 128.368 160.169 128.16 160.828C128.16 160.828 90.7527 160.736 84.912 160.828C84.912 160.828 82.3411 137.765 81.792 126.013V126.004Z" fill="#334155"/>
<path id="Vector_58" opacity="0.2" d="M86.925 160.803C86.0681 160.803 85.3775 160.811 84.9032 160.819C84.9032 160.819 82.3406 137.757 81.7832 125.996C81.7832 125.996 82.6402 125.963 84.1295 125.913L86.925 160.803Z" fill="#334155"/>
<g id="Group_21">
<path id="Vector_59" d="M98.016 134.312C95.911 133.645 93.6646 134.821 92.999 136.931C92.3334 139.049 93.5065 141.293 95.6115 141.96C97.7165 142.628 99.9629 141.452 100.62 139.341C101.286 137.231 100.113 134.979 98.0077 134.312H98.016ZM100.163 139.191C99.5802 141.051 97.6083 142.077 95.7613 141.493C93.9142 140.909 92.8825 138.933 93.4649 137.073C94.0473 135.221 96.0192 134.187 97.8745 134.771C99.7216 135.354 100.745 137.331 100.163 139.183V139.191ZM98.016 134.312C95.911 133.645 93.6646 134.821 92.999 136.931C92.3334 139.049 93.5065 141.293 95.6115 141.96C97.7165 142.628 99.9629 141.452 100.62 139.341C101.286 137.231 100.113 134.979 98.0077 134.312H98.016ZM100.163 139.191C99.5802 141.051 97.6083 142.077 95.7613 141.493C93.9142 140.909 92.8825 138.933 93.4649 137.073C94.0473 135.221 96.0192 134.187 97.8745 134.771C99.7216 135.354 100.745 137.331 100.163 139.183V139.191ZM98.016 134.312C95.911 133.645 93.6646 134.821 92.999 136.931C92.3334 139.049 93.5065 141.293 95.6115 141.96C97.7165 142.628 99.9629 141.452 100.62 139.341C101.286 137.231 100.113 134.979 98.0077 134.312H98.016ZM100.163 139.191C99.5802 141.051 97.6083 142.077 95.7613 141.493C93.9142 140.909 92.8825 138.933 93.4649 137.073C94.0473 135.221 96.0192 134.187 97.8745 134.771C99.7216 135.354 100.745 137.331 100.163 139.183V139.191ZM99.3472 130.075C94.9043 128.673 90.1702 131.151 88.7724 135.596C87.3746 140.05 89.8374 144.796 94.2803 146.198C98.7149 147.599 103.449 145.13 104.855 140.676C106.253 136.23 103.79 131.476 99.3555 130.075H99.3472ZM101.219 139.525C100.454 141.96 97.8579 143.32 95.4201 142.553C92.9907 141.785 91.6345 139.183 92.3999 136.739C93.1654 134.303 95.7696 132.944 98.199 133.711C100.628 134.479 101.985 137.081 101.219 139.517V139.525ZM100.629 139.341C101.294 137.231 100.121 134.979 98.016 134.312C95.911 133.645 93.6646 134.821 92.999 136.931C92.3334 139.049 93.5065 141.293 95.6115 141.96C97.7165 142.628 99.9629 141.452 100.62 139.341H100.629ZM100.163 139.191C99.5802 141.051 97.6083 142.077 95.7613 141.493C93.9142 140.909 92.8825 138.933 93.4649 137.073C94.0473 135.221 96.0192 134.187 97.8745 134.771C99.7216 135.354 100.745 137.331 100.163 139.183V139.191ZM98.016 134.312C95.911 133.645 93.6646 134.821 92.999 136.931C92.3334 139.049 93.5065 141.293 95.6115 141.96C97.7165 142.628 99.9629 141.452 100.62 139.341C101.286 137.231 100.113 134.979 98.0077 134.312H98.016ZM100.163 139.191C99.5802 141.051 97.6083 142.077 95.7613 141.493C93.9142 140.909 92.8825 138.933 93.4649 137.073C94.0473 135.221 96.0192 134.187 97.8745 134.771C99.7216 135.354 100.745 137.331 100.163 139.183V139.191ZM98.016 134.312C95.911 133.645 93.6646 134.821 92.999 136.931C92.3334 139.049 93.5065 141.293 95.6115 141.96C97.7165 142.628 99.9629 141.452 100.62 139.341C101.286 137.231 100.113 134.979 98.0077 134.312H98.016ZM100.163 139.191C99.5802 141.051 97.6083 142.077 95.7613 141.493C93.9142 140.909 92.8825 138.933 93.4649 137.073C94.0473 135.221 96.0192 134.187 97.8745 134.771C99.7216 135.354 100.745 137.331 100.163 139.183V139.191Z" fill="#FDBE68"/>
<g id="Group_22">
<path id="Vector_60" d="M95.9361 146.356L92.841 145.38L92.3252 147.624L95.0708 148.491L95.9361 146.356Z" fill="#FDBE68"/>
<path id="Vector_61" d="M90.3776 143.453L88.88 140.567L86.9248 141.793L88.256 144.354L90.3776 143.453Z" fill="#FDBE68"/>
<path id="Vector_62" d="M88.4976 137.456L89.4711 134.362L87.2247 133.836L86.3594 136.597L88.4976 137.456Z" fill="#FDBE68"/>
<path id="Vector_63" d="M91.3927 131.893L94.2631 130.392L93.0484 128.431L90.4941 129.766L91.3927 131.893Z" fill="#FDBE68"/>
<path id="Vector_64" d="M97.3672 130.008L100.462 130.984L100.978 128.732L98.2325 127.864L97.3672 130.008Z" fill="#FDBE68"/>
<path id="Vector_65" d="M102.925 132.91L104.422 135.788L106.369 134.57L105.038 132.001L102.925 132.91Z" fill="#FDBE68"/>
<path id="Vector_66" d="M104.805 138.899L103.831 141.994L106.069 142.519L106.934 139.758L104.805 138.899Z" fill="#FDBE68"/>
<path id="Vector_67" d="M101.91 144.471L99.0312 145.964L100.254 147.924L102.809 146.59L101.91 144.471Z" fill="#FDBE68"/>
</g>
</g>
<g id="Group_23">
<path id="Vector_68" d="M111.61 146.106C110.362 145.289 108.698 145.647 107.883 146.898C107.067 148.15 107.425 149.818 108.673 150.635C109.921 151.452 111.585 151.094 112.401 149.843C113.208 148.592 112.858 146.923 111.619 146.106H111.61ZM112.118 149.659C111.402 150.76 109.938 151.069 108.848 150.351C107.75 149.634 107.442 148.166 108.157 147.074C108.873 145.973 110.337 145.664 111.427 146.381C112.517 147.099 112.833 148.558 112.118 149.659ZM111.61 146.106C110.362 145.289 108.698 145.647 107.883 146.898C107.067 148.15 107.425 149.818 108.673 150.635C109.921 151.452 111.585 151.094 112.401 149.843C113.208 148.592 112.858 146.923 111.619 146.106H111.61ZM112.118 149.659C111.402 150.76 109.938 151.069 108.848 150.351C107.75 149.634 107.442 148.166 108.157 147.074C108.873 145.973 110.337 145.664 111.427 146.381C112.517 147.099 112.833 148.558 112.118 149.659ZM111.61 146.106C110.362 145.289 108.698 145.647 107.883 146.898C107.067 148.15 107.425 149.818 108.673 150.635C109.921 151.452 111.585 151.094 112.401 149.843C113.208 148.592 112.858 146.923 111.619 146.106H111.61ZM112.118 149.659C111.402 150.76 109.938 151.069 108.848 150.351C107.75 149.634 107.442 148.166 108.157 147.074C108.873 145.973 110.337 145.664 111.427 146.381C112.517 147.099 112.833 148.558 112.118 149.659ZM113.233 143.595C110.603 141.877 107.092 142.628 105.378 145.255C103.673 147.891 104.413 151.411 107.034 153.129C109.663 154.839 113.174 154.097 114.888 151.461C116.602 148.833 115.853 145.305 113.233 143.587V143.595ZM112.742 150.068C111.802 151.511 109.871 151.92 108.44 150.977C107.001 150.043 106.593 148.099 107.533 146.665C108.474 145.222 110.404 144.813 111.835 145.756C113.274 146.69 113.682 148.625 112.742 150.068ZM112.392 149.843C113.199 148.592 112.85 146.923 111.61 146.106C110.362 145.289 108.698 145.647 107.883 146.898C107.067 148.15 107.425 149.818 108.673 150.635C109.921 151.452 111.585 151.094 112.401 149.843H112.392ZM112.118 149.659C111.402 150.76 109.938 151.069 108.848 150.351C107.75 149.634 107.442 148.166 108.157 147.074C108.873 145.973 110.337 145.664 111.427 146.381C112.517 147.099 112.833 148.558 112.118 149.659ZM111.61 146.106C110.362 145.289 108.698 145.647 107.883 146.898C107.067 148.15 107.425 149.818 108.673 150.635C109.921 151.452 111.585 151.094 112.401 149.843C113.208 148.592 112.858 146.923 111.619 146.106H111.61ZM112.118 149.659C111.402 150.76 109.938 151.069 108.848 150.351C107.75 149.634 107.442 148.166 108.157 147.074C108.873 145.973 110.337 145.664 111.427 146.381C112.517 147.099 112.833 148.558 112.118 149.659ZM111.61 146.106C110.362 145.289 108.698 145.647 107.883 146.898C107.067 148.15 107.425 149.818 108.673 150.635C109.921 151.452 111.585 151.094 112.401 149.843C113.208 148.592 112.858 146.923 111.619 146.106H111.61ZM112.118 149.659C111.402 150.76 109.938 151.069 108.848 150.351C107.75 149.634 107.442 148.166 108.157 147.074C108.873 145.973 110.337 145.664 111.427 146.381C112.517 147.099 112.833 148.558 112.118 149.659Z" fill="#E2E8F0"/>
<g id="Group_24">
<path id="Vector_69" d="M108.091 153.538L106.261 152.345L105.521 153.705L107.143 154.772L108.091 153.538Z" fill="#E2E8F0"/>
<path id="Vector_70" d="M105.013 150.643L104.564 148.508L103.074 148.942L103.474 150.852L105.013 150.643Z" fill="#E2E8F0"/>
<path id="Vector_71" d="M104.871 146.423L106.061 144.588L104.705 143.845L103.64 145.472L104.871 146.423Z" fill="#E2E8F0"/>
<path id="Vector_72" d="M107.75 143.337L109.889 142.878L109.448 141.393L107.551 141.794L107.75 143.337Z" fill="#E2E8F0"/>
<path id="Vector_73" d="M111.969 143.195L113.799 144.388L114.54 143.028L112.917 141.96L111.969 143.195Z" fill="#E2E8F0"/>
<path id="Vector_74" d="M115.047 146.081L115.496 148.224L116.985 147.782L116.586 145.881L115.047 146.081Z" fill="#E2E8F0"/>
<path id="Vector_75" d="M115.188 150.31L113.998 152.145L115.354 152.887L116.419 151.261L115.188 150.31Z" fill="#E2E8F0"/>
<path id="Vector_76" d="M112.309 153.396L110.171 153.846L110.604 155.339L112.509 154.939L112.309 153.396Z" fill="#E2E8F0"/>
</g>
</g>
</g>
<g id="Group_25">
<path id="Vector_77" d="M151.348 168.96L153.993 169.46L161.565 118.055L158.553 117.497L151.348 168.96Z" fill="#FDBE68"/>
<g id="Group_26">
<path id="Vector_78" d="M128.159 160.819L132.095 126.471L158.552 117.497C158.552 117.497 151.347 169.519 151.347 168.96L128.159 160.811V160.819Z" fill="#FDBE68"/>
<path id="Vector_79" opacity="0.4" d="M128.159 160.819L132.095 126.471L158.552 117.497C158.552 117.497 151.347 169.519 151.347 168.96L128.159 160.811V160.819Z" fill="white"/>
</g>
</g>
<path id="Vector_80" d="M64.0275 127.864C63.5949 125.02 63.3619 122.151 63.1872 119.282C63.104 117.847 63.0707 116.404 63.0374 114.969C63.0124 113.535 62.9875 112.092 63.0291 110.657V110.282L63.4035 110.265C68.6618 109.982 73.9117 109.64 79.17 109.406C84.4283 109.147 89.6866 108.906 94.9449 108.747C89.7033 109.223 84.4533 109.631 79.2033 110.007C73.9534 110.415 68.7034 110.716 63.4534 111.074L63.8278 110.674L63.8028 114.969L63.8528 119.265C63.8528 120.7 63.8861 122.134 63.9277 123.569L64.0192 127.873L64.0275 127.864Z" fill="white"/>
<path id="Vector_81" d="M135.78 126.98C137.419 126.196 139.083 125.471 140.772 124.803C142.453 124.119 144.15 123.469 145.864 122.877C147.578 122.293 149.3 121.717 151.056 121.225C152.803 120.733 154.567 120.274 156.372 119.982L156.813 119.907L156.73 120.333C156.314 122.56 155.882 124.778 155.366 126.989C155.557 124.728 155.832 122.485 156.123 120.241L156.489 120.591C154.742 121.008 153.011 121.5 151.281 122.009C149.55 122.526 147.828 123.068 146.114 123.636L135.78 126.989V126.98Z" fill="white"/>
<g id="Group_27">
<path id="Vector_82" opacity="0.1" d="M75.4766 107.83L75.9259 116.421L76.3086 125.012L76.9659 142.202L77.4817 159.401L77.6897 168.001L77.8311 176.6L77.3819 168.009L76.9991 159.418L76.3419 142.227L75.826 125.029L75.618 116.429L75.4766 107.83Z" fill="#334155"/>
<path id="Vector_83" opacity="0.1" d="M73.0221 113.009C73.1885 113.752 72.7475 114.627 71.9155 114.878C71.5162 115.003 71.0419 114.961 70.6425 114.736C70.2515 114.511 69.9603 114.102 69.8688 113.652C69.7773 113.201 69.8854 112.709 70.16 112.35C70.4345 111.992 70.8589 111.767 71.2749 111.725C72.1402 111.625 72.8807 112.275 73.0138 113.018L73.0221 113.009ZM73.0221 113.009C72.9472 112.634 72.7059 112.3 72.3814 112.117C72.057 111.933 71.6659 111.917 71.3498 112.017C70.6842 112.234 70.3597 112.943 70.4845 113.518C70.5926 114.102 71.1584 114.627 71.8573 114.569C72.1984 114.544 72.5478 114.369 72.7725 114.077C73.0054 113.785 73.097 113.385 73.0221 113.009Z" fill="#334155"/>
<path id="Vector_84" opacity="0.1" d="M73.6129 123.31C73.7793 124.053 73.3384 124.928 72.5064 125.179C72.107 125.304 71.6327 125.262 71.2334 125.037C70.8423 124.812 70.5511 124.403 70.4596 123.953C70.3681 123.502 70.4763 123.01 70.7508 122.651C71.0254 122.293 71.4497 122.068 71.8657 122.026C72.731 121.926 73.4715 122.576 73.6046 123.319L73.6129 123.31ZM73.6129 123.31C73.538 122.935 73.2968 122.601 72.9723 122.418C72.6478 122.234 72.2567 122.218 71.9406 122.318C71.275 122.535 70.9505 123.244 71.0753 123.819C71.1835 124.403 71.7492 124.928 72.4481 124.87C72.7892 124.845 73.1387 124.67 73.3633 124.378C73.5963 124.086 73.6878 123.686 73.6129 123.31Z" fill="#334155"/>
<path id="Vector_85" opacity="0.1" d="M73.9868 134.245C74.1532 134.987 73.7123 135.863 72.8803 136.114C72.4809 136.239 72.0067 136.197 71.6073 135.972C71.2163 135.747 70.925 135.338 70.8335 134.887C70.742 134.437 70.8502 133.945 71.133 133.586C71.4076 133.228 71.8319 133.002 72.2479 132.961C73.1132 132.861 73.8537 133.511 73.9868 134.253V134.245ZM73.9868 134.245C73.912 133.87 73.6707 133.536 73.3462 133.353C73.0217 133.169 72.6307 133.152 72.3145 133.253C71.6489 133.469 71.3244 134.178 71.4492 134.754C71.5574 135.338 72.1231 135.863 72.822 135.805C73.1631 135.78 73.5126 135.605 73.7372 135.313C73.9702 135.021 74.0617 134.62 73.9868 134.245Z" fill="#334155"/>
<path id="Vector_86" opacity="0.1" d="M74.3619 145.18C74.5283 145.923 74.0874 146.798 73.2554 147.049C72.856 147.174 72.3818 147.132 71.9824 146.907C71.5913 146.682 71.3002 146.273 71.2086 145.822C71.1171 145.372 71.2253 144.88 71.4998 144.521C71.7744 144.163 72.1987 143.937 72.6147 143.896C73.48 143.796 74.2205 144.446 74.3536 145.189L74.3619 145.18ZM74.3619 145.18C74.2871 144.805 74.0458 144.471 73.7213 144.288C73.3968 144.104 73.0058 144.088 72.6896 144.188C72.024 144.405 71.6995 145.113 71.8243 145.689C71.9325 146.273 72.4982 146.798 73.1971 146.74C73.5383 146.715 73.8877 146.54 74.1123 146.248C74.3453 145.956 74.4368 145.556 74.3619 145.18Z" fill="#334155"/>
<path id="Vector_87" opacity="0.1" d="M74.736 156.115C74.9024 156.857 74.4614 157.733 73.6294 157.983C73.23 158.108 72.7558 158.067 72.3564 157.842C71.9654 157.616 71.6742 157.208 71.5827 156.757C71.4911 156.307 71.5993 155.815 71.8739 155.456C72.1484 155.097 72.5727 154.872 72.9888 154.831C73.854 154.73 74.5945 155.381 74.7276 156.123L74.736 156.115ZM74.736 156.115C74.6611 155.74 74.4198 155.406 74.0953 155.223C73.7708 155.039 73.3798 155.022 73.0636 155.122C72.398 155.339 72.0735 156.048 72.1983 156.624C72.3065 157.208 72.8723 157.733 73.5712 157.675C73.9123 157.65 74.2617 157.475 74.4864 157.183C74.7193 156.891 74.8108 156.49 74.736 156.115Z" fill="#334155"/>
<path id="Vector_88" opacity="0.1" d="M75.11 167.042C75.2764 167.784 74.8354 168.66 74.0034 168.91C73.6041 169.035 73.1298 168.993 72.7304 168.768C72.3394 168.543 72.0482 168.134 71.9567 167.684C71.8652 167.233 71.9733 166.741 72.2479 166.383C72.5224 166.024 72.9468 165.799 73.3628 165.757C74.2281 165.657 74.9685 166.308 75.1017 167.05L75.11 167.042ZM75.11 167.042C75.0351 166.666 74.7938 166.333 74.4693 166.149C74.1449 165.966 73.7538 165.949 73.4376 166.049C72.772 166.266 72.4476 166.975 72.5724 167.55C72.6805 168.134 73.2463 168.66 73.9452 168.601C74.2863 168.576 74.6357 168.401 74.8604 168.109C75.0934 167.817 75.1849 167.417 75.11 167.042Z" fill="#334155"/>
</g>
</g>
<g id="Group_28">
<path id="Vector_89" d="M78.4981 183.763L39.498 195.612L40.8783 200.178L79.8784 188.329L78.4981 183.763Z" fill="#FDBE68"/>
<path id="Vector_90" opacity="0.4" d="M78.4981 183.763L39.498 195.612L40.8783 200.178L79.8784 188.329L78.4981 183.763Z" fill="white"/>
<path id="Vector_91" d="M59.7921 187.885L55.2568 189.331L57.3999 196.087L61.9352 194.641L59.7921 187.885Z" fill="#FDBE68"/>
<g id="Group_29">
<path id="Vector_92" d="M40.5572 206.869L30.4899 163.18L0.113281 170.403L15.0728 212.983L40.5572 206.869Z" fill="#FDBE68"/>
<g id="Group_30">
<path id="Vector_93" d="M47.2968 204.651L40.5575 206.869L30.4902 163.18L40.1831 165.498L47.2968 204.651Z" fill="#FDBE68"/>
<path id="Vector_94" opacity="0.2" d="M47.2968 204.651L40.5575 206.869L30.4902 163.18L40.1831 165.498L47.2968 204.651Z" fill="#334155"/>
</g>
</g>
<path id="Vector_95" d="M79.1873 191.222C82.0408 191.222 84.354 188.903 84.354 186.042C84.354 183.181 82.0408 180.862 79.1873 180.862C76.3338 180.862 74.0205 183.181 74.0205 186.042C74.0205 188.903 76.3338 191.222 79.1873 191.222Z" fill="#FDBE68"/>
</g>
<g id="Group_31">
<path id="Vector_96" d="M132.394 183.65L131.004 188.213L169.979 200.144L171.369 195.581L132.394 183.65Z" fill="#FDBE68"/>
<path id="Vector_97" opacity="0.4" d="M132.394 183.65L131.004 188.213L169.979 200.144L171.369 195.581L132.394 183.65Z" fill="white"/>
<path id="Vector_98" d="M151.064 187.778L148.905 194.53L153.437 195.986L155.596 189.234L151.064 187.778Z" fill="#FDBE68"/>
<g id="Group_32">
<path id="Vector_99" d="M170.292 206.836L180.442 163.171L210.802 170.453L195.76 213L170.292 206.836Z" fill="#FDBE68"/>
<g id="Group_33">
<path id="Vector_100" d="M163.553 204.601L170.292 206.836L180.442 163.171L170.75 165.457L163.553 204.601Z" fill="#FDBE68"/>
<path id="Vector_101" opacity="0.2" d="M163.553 204.601L170.292 206.836L180.442 163.171L170.75 165.457L163.553 204.601Z" fill="#334155"/>
</g>
</g>
<path id="Vector_102" d="M126.528 185.917C126.528 188.778 128.833 191.105 131.687 191.113C134.541 191.113 136.862 188.803 136.87 185.942C136.87 183.081 134.566 180.754 131.712 180.746C128.858 180.746 126.537 183.056 126.528 185.917Z" fill="#FDBE68"/>
</g>
<g id="Group_34">
<g id="Group_35">
<path id="Vector_103" d="M165.55 132.027C165.674 131.91 178.196 120.266 192.931 124.244C207.999 128.323 220.445 151.077 220.562 151.302L224.747 149.034C224.206 148.024 211.227 124.244 194.162 119.632C176.807 114.944 162.846 127.998 162.255 128.557L165.533 132.018L165.55 132.027Z" fill="#FDBE68"/>
<path id="Vector_104" opacity="0.4" d="M165.55 132.027C165.674 131.91 178.196 120.266 192.931 124.244C207.999 128.323 220.445 151.077 220.562 151.302L224.747 149.034C224.206 148.024 211.227 124.244 194.162 119.632C176.807 114.944 162.846 127.998 162.255 128.557L165.533 132.018L165.55 132.027Z" fill="white"/>
</g>
<path id="Vector_105" d="M215.021 174.215L224.049 169.436C223.183 167.792 222.118 164.965 221.96 162.413C221.76 159.11 223.067 157.942 224.514 157.183C227.676 155.506 229.565 156.174 230.854 156.933C232.66 158 234.499 160.194 236.029 163.096L245.057 158.317C242.586 153.63 239.557 150.193 236.046 148.116C232.543 146.048 226.877 144.363 219.755 148.133C214.206 151.069 211.377 156.357 211.785 163.03C212.101 168.285 214.356 172.914 215.03 174.207L215.021 174.215Z" fill="#FDBE68"/>
</g>
<g id="Group_36">
<path id="Vector_106" d="M167.455 116.087C169.41 114.736 171.415 113.46 173.42 112.192C175.425 110.916 177.464 109.706 179.502 108.488C181.549 107.287 183.596 106.095 185.676 104.952L188.796 103.242C189.852 102.7 190.892 102.133 191.966 101.607C190.992 102.291 189.994 102.933 189.004 103.592L186 105.502C183.995 106.77 181.956 107.988 179.918 109.206C177.871 110.407 175.825 111.6 173.736 112.742C171.656 113.893 169.576 115.028 167.446 116.087H167.455Z" fill="#334155"/>
<path id="Vector_107" d="M162.271 135.605C165.075 137.206 167.729 139.008 170.342 140.868C172.946 142.745 175.517 144.671 177.93 146.807C175.126 145.205 172.472 143.403 169.859 141.543C167.255 139.667 164.693 137.74 162.271 135.605Z" fill="#334155"/>
<path id="Vector_108" d="M166.872 133.211C169.035 133.87 171.165 134.612 173.287 135.371C175.417 136.122 177.513 136.931 179.618 137.74C181.715 138.566 183.812 139.4 185.883 140.284L188.987 141.619C190.01 142.094 191.05 142.536 192.065 143.037C190.984 142.711 189.919 142.344 188.845 142.002L185.659 140.885C183.529 140.134 181.432 139.325 179.327 138.516C177.231 137.69 175.134 136.856 173.062 135.972C170.991 135.088 168.919 134.195 166.88 133.219L166.872 133.211Z" fill="#334155"/>
<path id="Vector_109" d="M173.013 117.922C175.084 117.38 177.173 116.929 179.261 116.496C181.349 116.054 183.446 115.67 185.551 115.286C187.656 114.928 189.761 114.569 191.874 114.269L195.044 113.827C196.109 113.71 197.166 113.568 198.231 113.476C197.199 113.752 196.151 113.977 195.111 114.235L191.982 114.903C189.894 115.345 187.797 115.728 185.692 116.112C183.588 116.471 181.483 116.829 179.369 117.13C177.256 117.438 175.143 117.722 173.013 117.922Z" fill="#334155"/>
</g>
</g>
</g>
</svg>
