<svg width="16" height="16" viewBox="0 0 16 16" fill="none" xmlns="http://www.w3.org/2000/svg">
<g id="Frame" clip-path="url(#clip0_1_171)">
<path id="Vector" d="M2.494 0.938676L14.802 7.70801C14.8543 7.73678 14.8978 7.77906 14.9282 7.83042C14.9586 7.88178 14.9746 7.94035 14.9746 8.00001C14.9746 8.05967 14.9586 8.11824 14.9282 8.1696C14.8978 8.22096 14.8543 8.26323 14.802 8.29201L2.494 15.0613C2.44325 15.0893 2.3861 15.1035 2.32818 15.1026C2.27027 15.1017 2.21358 15.0857 2.16372 15.0562C2.11385 15.0268 2.07253 14.9848 2.04382 14.9345C2.01511 14.8842 2.00001 14.8273 2 14.7693V1.23068C2.00001 1.17275 2.01511 1.11583 2.04382 1.06552C2.07253 1.01521 2.11385 0.973255 2.16372 0.943781C2.21358 0.914307 2.27027 0.898335 2.32818 0.89744C2.3861 0.896545 2.44325 0.910757 2.494 0.938676ZM3.33333 8.66668V13.078L12.5667 8.00001L3.33333 2.92201V7.33334H6.66667V8.66668H3.33333Z" fill="#A0AEC0"/>
</g>
<defs>
<clipPath id="clip0_1_171">
<rect width="16" height="16" fill="white"/>
</clipPath>
</defs>
</svg>
