<svg width="25" height="24" viewBox="0 0 25 24" fill="none" xmlns="http://www.w3.org/2000/svg">
<g id="Frame" clip-path="url(#clip0_1_141)">
<path id="Vector" d="M13.5 14H11.5C9.8596 13.9994 8.25023 14.4471 6.84588 15.2949C5.44152 16.1427 4.2956 17.3582 3.532 18.81C3.51054 18.5405 3.49986 18.2703 3.5 18C3.5 12.477 7.977 8 13.5 8V2.5L24 11L13.5 19.5V14ZM11.5 12H15.5V15.308L20.821 11L15.5 6.692V10H13.5C12.3503 9.99871 11.2138 10.2458 10.1684 10.7244C9.12299 11.203 8.19332 11.9018 7.443 12.773C8.73432 12.2612 10.111 11.9989 11.5 12Z" fill="#718096"/>
</g>
<defs>
<clipPath id="clip0_1_141">
<rect width="24" height="24" fill="white" transform="translate(0.5)"/>
</clipPath>
</defs>
</svg>
